<svg xmlns="http://www.w3.org/2000/svg" viewBox="0 0 512 512" width="512" height="512" role="img" aria-label="Centre de Ressources Danfoss">
  <defs>
    <linearGradient id="bg" x1="0" y1="0" x2="1" y2="1">
      <stop offset="0" stop-color="#ff3b47"/>
      <stop offset="1" stop-color="#d40410"/>
    </linearGradient>
  </defs>
  <!-- Tuile -->
  <rect width="512" height="512" rx="116" fill="url(#bg)"/>
  <!-- Document (catalogue) -->
  <g>
    <path d="M168 96h120l60 60v236a28 28 0 0 1-28 28H168a28 28 0 0 1-28-28V124a28 28 0 0 1 28-28z" fill="#ffffff"/>
    <path d="M288 96l60 60h-44a16 16 0 0 1-16-16z" fill="#f0c2c5"/>
    <!-- Lignes de texte -->
    <g fill="#c9ced8">
      <rect x="176" y="196" width="120" height="18" rx="9"/>
      <rect x="176" y="238" width="160" height="18" rx="9"/>
      <rect x="176" y="280" width="160" height="18" rx="9"/>
      <rect x="176" y="322" width="96" height="18" rx="9"/>
    </g>
  </g>
  <!-- Éclair (énergie / variateurs) -->
  <path d="M356 214l-70 96h44l-26 92 88-118h-46z" fill="#0a0c11"/>
  <path d="M356 214l-70 96h44l-26 92 88-118h-46z" fill="none" stroke="#ffffff" stroke-width="10" stroke-linejoin="round"/>
</svg>
